
<svg width="44" height="44" viewBox="0 0 44 44" fill="none" xmlns="http://www.w3.org/2000/svg">
<circle cx="17.6266" cy="27.1451" r="15.3668" fill="white" stroke="#00B4B6"/>
<path d="M17.627 38.8315L12.7794 33.9839L17.975 28.7884C19.2014 27.562 19.9099 26.5552 20.1005 25.768C20.2911 24.9808 20.0425 24.2433 19.3547 23.5555C18.8327 23.0335 18.1987 22.7724 17.453 22.7724C16.7238 22.7724 16.0981 23.0335 15.5761 23.5555C15.0375 24.0941 14.7682 24.7197 14.7682 25.4324C14.7765 26.1533 15.0499 26.783 15.5885 27.3217C15.7211 27.4542 15.8827 27.5827 16.0733 27.707C16.2722 27.823 16.5083 27.9431 16.7818 28.0674L11.7478 33.1014L11.6483 33.0269C11.176 32.6043 10.8446 32.2977 10.654 32.1071C8.78124 30.2343 7.84488 27.997 7.84488 25.3951C7.85316 22.8014 8.80196 20.56 10.6913 18.6707C11.5862 17.7757 12.6054 17.088 13.7489 16.6073C14.8925 16.1267 16.0899 15.8906 17.3411 15.8989C18.6255 15.8906 19.8477 16.1267 21.0078 16.6073C22.1679 17.088 23.2037 17.784 24.1152 18.6955C25.4576 20.0379 26.3277 21.5792 26.7255 23.3193C27.1315 25.0512 27.0155 26.7748 26.3774 28.49C26.0294 29.385 25.5861 30.2261 25.0475 31.0133C24.5254 31.8005 23.7755 32.683 22.7977 33.6608L21.853 34.6054L17.627 38.8315Z" fill="#00B4B6"/>
</svg>
