
<svg width="154" height="30" viewBox="0 0 154 30" fill="none" xmlns="http://www.w3.org/2000/svg">
<path d="M0.03125 30V14.8047C0.03125 13.2161 0.0703125 12.0182 0.148438 11.2109C0.239583 10.4036 0.376302 9.64193 0.558594 8.92578C1.20964 6.38672 2.38802 4.42057 4.09375 3.02734C5.8125 1.62109 7.88932 0.917969 10.3242 0.917969C12.0039 0.917969 13.5599 1.30208 14.9922 2.07031C16.4245 2.83854 17.6029 3.91927 18.5273 5.3125C19.2565 6.44531 19.7839 7.70182 20.1094 9.08203C20.4349 10.4622 20.5977 12.3698 20.5977 14.8047V30H12.2383V12.7539C12.2383 11.6341 12.0951 10.8398 11.8086 10.3711C11.5352 9.88932 11.0794 9.64844 10.4414 9.64844C9.82943 9.64844 9.39323 9.86328 9.13281 10.293C8.88542 10.7227 8.76172 11.543 8.76172 12.7539V15.7617H10.9688V23.3203H8.76172V30H0.03125ZM24.6797 30V1.48438H34.6406C36.3464 1.48438 37.8112 1.60156 39.0352 1.83594C40.2591 2.05729 41.4635 2.42188 42.6484 2.92969C45.2526 3.9974 47.3099 5.68359 48.8203 7.98828C50.3307 10.293 51.0859 12.8841 51.0859 15.7617C51.0859 18.6393 50.3372 21.2305 48.8398 23.5352C47.3424 25.8268 45.2917 27.526 42.6875 28.6328C41.5938 29.0885 40.474 29.4336 39.3281 29.668C38.1953 29.8893 37.0365 30 35.8516 30H34.4844V21.4844H35.9688C37.974 21.4844 39.5755 20.9635 40.7734 19.9219C41.9714 18.8672 42.5703 17.4674 42.5703 15.7227C42.5703 13.8216 41.9128 12.3958 40.5977 11.4453C39.2956 10.4818 37.3685 10 34.8164 10H33.2148V30H24.6797ZM76.3398 30V11.5625C76.3398 10.5599 76.2161 9.8763 75.9688 9.51172C75.7214 9.14714 75.2982 8.96484 74.6992 8.96484C74.0612 8.96484 73.6055 9.15365 73.332 9.53125C73.0716 9.90885 72.9414 10.5859 72.9414 11.5625V30H64.8555V11.5625C64.8555 10.5599 64.7318 9.8763 64.4844 9.51172C64.237 9.14714 63.8138 8.96484 63.2148 8.96484C62.5768 8.96484 62.1211 9.15365 61.8477 9.53125C61.5872 9.90885 61.457 10.5859 61.457 11.5625V30H53.4688V11.7578C53.4688 9.83073 53.5664 8.36589 53.7617 7.36328C53.957 6.36068 54.2826 5.48177 54.7383 4.72656C55.4805 3.5026 56.4505 2.5651 57.6484 1.91406C58.8594 1.25 60.2266 0.917969 61.75 0.917969C63.2604 0.917969 64.6276 1.27604 65.8516 1.99219C67.0885 2.70833 68.1042 3.73698 68.8984 5.07812C69.7057 3.72396 70.7148 2.69531 71.9258 1.99219C73.1497 1.27604 74.5169 0.917969 76.0273 0.917969C77.3685 0.917969 78.5859 1.16536 79.6797 1.66016C80.7865 2.15495 81.7174 2.88411 82.4727 3.84766C83.1367 4.68099 83.612 5.65104 83.8984 6.75781C84.1979 7.86458 84.3477 9.53125 84.3477 11.7578V30H76.3398ZM87.7656 30V14.8047C87.7656 13.2161 87.8047 12.0182 87.8828 11.2109C87.974 10.4036 88.1107 9.64193 88.293 8.92578C88.944 6.38672 90.1224 4.42057 91.8281 3.02734C93.5469 1.62109 95.6237 0.917969 98.0586 0.917969C99.7383 0.917969 101.294 1.30208 102.727 2.07031C104.159 2.83854 105.337 3.91927 106.262 5.3125C106.991 6.44531 107.518 7.70182 107.844 9.08203C108.169 10.4622 108.332 12.3698 108.332 14.8047V30H99.9727V12.7539C99.9727 11.6341 99.8294 10.8398 99.543 10.3711C99.2695 9.88932 98.8138 9.64844 98.1758 9.64844C97.5638 9.64844 97.1276 9.86328 96.8672 10.293C96.6198 10.7227 96.4961 11.543 96.4961 12.7539V15.7617H98.7031V23.3203H96.4961V30H87.7656ZM127.336 30L121.223 14.5117L127.98 1.48438H136.867L129.738 14.5117L136.867 30H127.336ZM112.414 30V1.48438H120.949V30H112.414ZM153.84 30H147.922C146.451 30 145.285 29.9089 144.426 29.7266C143.566 29.5443 142.759 29.2513 142.004 28.8477C140.702 28.1315 139.68 27.194 138.938 26.0352C138.208 24.8633 137.844 23.6263 137.844 22.3242V11.6406C137.844 9.25781 138.065 7.51953 138.508 6.42578C138.964 5.33203 139.732 4.34896 140.812 3.47656C141.646 2.77344 142.655 2.26562 143.84 1.95312C145.025 1.64062 146.535 1.48438 148.371 1.48438H153.84V9.80469H148.41C147.772 9.80469 147.329 9.90885 147.082 10.1172C146.848 10.3125 146.73 10.6445 146.73 11.1133C146.73 11.6211 146.861 11.9922 147.121 12.2266C147.382 12.4479 147.811 12.5586 148.41 12.5586H153.488V18.9258H147.609C146.984 18.9258 146.555 19.0299 146.32 19.2383C146.086 19.4336 145.969 19.7656 145.969 20.2344C145.969 20.7552 146.092 21.1263 146.34 21.3477C146.587 21.569 147.01 21.6797 147.609 21.6797H153.84V30Z" fill="#00B4B6"/>
</svg>
