<?xml version="1.0" encoding="utf-8"?><!-- Uploaded to: SVG Repo, www.svgrepo.com, Generator: SVG Repo Mixer Tools -->
<svg version="1.1" id="Uploaded to svgrepo.com" xmlns="http://www.w3.org/2000/svg" xmlns:xlink="http://www.w3.org/1999/xlink" 
	 width="800px" height="800px" viewBox="0 0 32 32" xml:space="preserve">
<style type="text/css">
	.linesandangles_een{fill:#fff;}
</style>
<path class="linesandangles_een" d="M19,8V4H5v24h22V8H19z M25,26H7v-4h18V26z M7,20V6h10v4h8v10H7z M19,25h-6v-2h6V25z M9,12h2v2H9
	V12z M13,12h2v2h-2V12z M17,12h2v2h-2V12z M21,12h2v2h-2V12z M9,8h6v2H9V8z M9,16h2v2H9V16z M13,16h2v2h-2V16z M17,16h2v2h-2V16z
	 M21,16h2v2h-2V16z"/>
</svg>